{"title":"The First Wives Club (1996) DVDrip-XviD-AC3","uid":7753627,"size":1462724825,"categoryP":"video","categoryS":"movies","magnet":"?xt=urn:btih:ded33cba8d799375c6b76e17bd4752cdcda8e143&amp;dn=The+First+Wives+Club+%281996%29+DVDrip-XviD-AC3&amp;tr=udp%3A%2F%2Ftracker.openbittorrent.com%3A80&amp;tr=udp%3A%2F%2Fopen.demonii.com%3A1337&amp;tr=udp%3A%2F%2Ftracker.coppersurfer.tk%3A6969&amp;tr=udp%3A%2F%2Fexodus.desync.com%3A6969","seeders":1,"leechers":0,"uploader":"g1-b1","files":2,"time":1351028142,"description":"&quot;After years of helping their hubbies climb the ladder of success, three wives have been dumped for newer, curvier models. But the trio is determined to turn their pain into gain. They come up with a cleverly devious plan to hit their exes where it really hurts - in the wallet! Sit back and watch the sparks fly as The Wives get mad, get even and get it all. Justice has seldom been so sweet. Or so much fun.&quot;\n\n=====================================================================================\nGeneral\nFormat                         : AVI\nFormat/Info                    : Audio Video Interleave\nFormat profile                 : OpenDML\nFile size                      : 1.36 GiB\nDuration                       : 1h 38mn\nOverall bit rate               : 1 983 Kbps\nWriting application            : MEncoder UNKNOWN-4.4.1\nWriting library                : MPlayer\n\nVideo\nID                             : 0\nFormat                         : MPEG-4 Visual\nFormat profile                 : Advanced Simple@L5\nFormat settings, BVOP          : 2\nFormat settings, QPel          : Yes\nFormat settings, GMC           : 3 warppoints\nFormat settings, Matrix        : Default (H.263)\nMuxing mode                    : Packed bitstream\nCodec ID                       : XVID\nCodec ID/Hint                  : XviD\nDuration                       : 1h 38mn\nBit rate                       : 1 529 Kbps\nWidth                          : 640 pixels\nHeight                         : 352 pixels\nDisplay aspect ratio           : 16:9\nFrame rate                     : 25.000 fps\nColor space                    : YUV\nChroma subsampling             : 4:2:0\nBit depth                      : 8 bits\nScan type                      : Progressive\nCompression mode               : Lossy\nBits/(Pixel*Frame)             : 0.272\nStream size                    : 1.05 GiB (77%)\nWriting library                : XviD 1.1.0 Beta2 (UTC 2005-04-04)\n\nAudio\nID                             : 1\nFormat                         : AC-3\nFormat/Info                    : Audio Coding 3\nMode extension                 : CM (complete main)\nFormat settings, Endianness    : Big\nCodec ID                       : 2000\nDuration                       : 1h 38mn\nBit rate mode                  : Constant\nBit rate                       : 448 Kbps\nChannel(s)                     : 6 channels\nChannel positions              : Front: L C R, Side: L R, LFE\nSampling rate                  : 48.0 KHz\nBit depth                      : 16 bits\nCompression mode               : Lossy\nStream size                    : 315 MiB (23%)\nAlignment                      : Split accross interleaves\nInterleave, duration           : 501 ms (12.53 video frames)\nInterleave, preload duration   : 500 ms\n\n===================================================================================","torrent":{"xt":"urn:btih:ded33cba8d799375c6b76e17bd4752cdcda8e143","amp;dn":"The+First+Wives+Club+%281996%29+DVDrip-XviD-AC3","amp;tr":["udp%3A%2F%2Ftracker.openbittorrent.com%3A80","udp%3A%2F%2Fopen.demonii.com%3A1337","udp%3A%2F%2Ftracker.coppersurfer.tk%3A6969","udp%3A%2F%2Fexodus.desync.com%3A6969"],"infoHash":"ded33cba8d799375c6b76e17bd4752cdcda8e143","infoHashBuffer":{"type":"Buffer","data":[222,211,60,186,141,121,147,117,198,183,110,23,189,71,82,205,205,168,225,67]},"announce":[],"urlList":[]}}